<?xml version="1.0" encoding="UTF-8" standalone="no"?>
<!-- Created with Inkscape (http://www.inkscape.org/) -->

<svg
   xmlns:dc="http://purl.org/dc/elements/1.1/"
   xmlns:cc="http://creativecommons.org/ns#"
   xmlns:rdf="http://www.w3.org/1999/02/22-rdf-syntax-ns#"
   xmlns:svg="http://www.w3.org/2000/svg"
   xmlns="http://www.w3.org/2000/svg"
   xmlns:sodipodi="http://sodipodi.sourceforge.net/DTD/sodipodi-0.dtd"
   xmlns:inkscape="http://www.inkscape.org/namespaces/inkscape"
   width="118.91631mm"
   height="30.306482mm"
   viewBox="0 0 421.35702 107.38518"
   id="svg4818"
   version="1.1"
   inkscape:version="0.48.4 r9939"
   sodipodi:docname="geofetch_logo.svg">
  <defs
     id="defs4820" />
  <sodipodi:namedview
     id="base"
     pagecolor="#ffffff"
     bordercolor="#666666"
     borderopacity="1.0"
     inkscape:pageopacity="0.0"
     inkscape:pageshadow="2"
     inkscape:zoom="1.348958"
     inkscape:cx="304.86806"
     inkscape:cy="-58.395572"
     inkscape:document-units="px"
     inkscape:current-layer="layer1"
     showgrid="false"
     fit-margin-top="1"
     fit-margin-left="1"
     fit-margin-right="1"
     fit-margin-bottom="1"
     inkscape:window-width="1920"
     inkscape:window-height="1139"
     inkscape:window-x="1920"
     inkscape:window-y="0"
     inkscape:window-maximized="1" />
  <metadata
     id="metadata4823">
    <rdf:RDF>
      <cc:Work
         rdf:about="">
        <dc:format>image/svg+xml</dc:format>
        <dc:type
           rdf:resource="http://purl.org/dc/dcmitype/StillImage" />
        <dc:title />
      </cc:Work>
    </rdf:RDF>
  </metadata>
  <g
     inkscape:label="Layer 1"
     inkscape:groupmode="layer"
     id="layer1"
     transform="translate(-442.41812,-347.24105)">
    <path
       inkscape:connector-curvature="0"
       style="clip-rule:evenodd;fill:#214478;fill-rule:evenodd;fill-opacity:1"
       d="m 460.63349,417.32902 c -3.57553,0 -5.35759,3.09878 -6.49754,6.47732 l -3.46147,8.30294 c -0.65277,1.94839 -0.93112,1.68636 -0.93112,3.74871 l 0,8.72745 c 0,3.57543 2.92216,6.49748 6.49769,6.49748 l 62.70852,0 c 3.57553,0 6.51762,-2.92205 6.51762,-6.49748 l 0,-8.72745 c 0,-1.24476 -0.35745,-1.74871 -0.35745,-1.74871 l -4.07531,-10.30294 c -1.12959,-3.37854 -2.90176,-6.47732 -6.47731,-6.47732 l -10.7888,0 -12.95475,8.73208 -0.20251,0.20247 -0.18211,0.14154 c -0.44563,0.31091 -0.94851,0.54317 -1.49789,0.68827 l -0.0195,0 c -0.41445,0.10367 -0.85963,0.16193 -1.31561,0.16193 l 0,0.0197 c -0.42493,0 -0.87012,-0.068 -1.3159,-0.18214 l -0.0195,0 c -0.5492,-0.14515 -1.06241,-0.37736 -1.49771,-0.68827 l -0.2025,-0.14154 -0.2025,-0.20252 -12.93453,-8.73201 -10.78864,0 z m -3.72452,17.01082 61.37254,0 c 1.19178,0 2.16593,0.97402 2.16593,2.16591 l 0,7.41173 c 0,1.19178 -0.97595,2.10037 -2.16593,2.1658 l -36.37424,0 0,-5.88183 -3.29929,0 0,5.88183 -2.87433,0 0,-5.88183 -3.29928,0 0,5.88183 -2.87434,0 0,-5.88183 -3.29943,0 0,5.88183 -2.87433,0 0,-5.88183 -3.27935,0 0,5.88183 -3.19795,0 c -1.19195,0 -2.16595,-0.96365 -2.16595,-2.1658 l 0,-7.41173 c 0,-1.19189 0.974,-2.16591 2.16595,-2.16591 z m 56.77772,1.67159 c -2.32152,0 -4.19009,1.88878 -4.19009,4.21028 0,2.32144 1.86857,4.19004 4.19009,4.19004 2.3214,0 4.18996,-1.87892 4.18996,-4.19004 0,-2.31118 -1.86856,-4.21028 -4.18996,-4.21028 z"
       id="path6174"
       sodipodi:nodetypes="cccssssssccsccccccccccccccccsssssccccccccccccccccsssssssss" />
    <path
       style="clip-rule:evenodd;fill:#1a1a1a;fill-rule:evenodd;fill-opacity:1"
       d="m 32.208984,50.609375 -0.291015,9.044922 -0.404297,0.384765 -0.851563,0.101563 L 20.5625,59.695312 c -0.22799,-0.0218 -0.294357,0.318905 -0.304688,0.546876 -0.0216,0.228029 0.07688,0.441641 0.244141,0.607421 l 20.302735,13.998047 c 0.196959,0.14497 0.487868,0.203125 0.830078,0.203125 0.34188,0 0.631325,-0.06816 0.828125,-0.203125 L 62.765625,60.849609 c 0.16571,-0.16588 0.232986,-0.34954 0.222656,-0.58789 -0.0103,-0.23833 -0.0553,-0.576756 -0.283203,-0.566407 l -10.099609,0.445313 -0.871094,-0.101563 -0.384766,-0.384765 -0.257812,-9.082031 c -0.436867,0.171292 -0.808345,0.421628 -1.263672,0.568359 -1.678586,0.540931 -3.48235,0.90752 -5.414063,1.046875 -1.521024,0.109728 -2.989363,0.114555 -4.40039,0.03125 -1.411028,-0.08331 -2.764842,-0.253429 -4.060547,-0.492188 -1.377171,-0.253769 -2.503454,-0.73159 -3.744141,-1.117187 z"
       id="path4182"
       transform="translate(445.96138,350.78435)"
       inkscape:connector-curvature="0" />
    <g
       transform="matrix(0.35886643,0.71480525,-0.71480525,0.35886643,1183.3104,-13.69954)"
       id="g6178"
       style="fill:#214478;fill-opacity:1">
      <path
         inkscape:connector-curvature="0"
         style="color:#000000;text-indent:0;text-transform:none;direction:ltr;block-progression:tb;baseline-shift:baseline;display:inline;overflow:visible;visibility:visible;fill:#214478;fill-opacity:1;stroke:none;marker:none;enable-background:accumulate"
         d="M 29.8125,958.36438 A 2.0001999,2.0001499 0 0 0 28,960.36433 c 0.01592,6.18364 3.030914,11.12179 7.25,14.90588 4.219086,3.78408 9.64412,6.56897 14.9375,8.90602 a 2.0001999,2.0001499 0 0 0 0.0625,0.0312 c 3.895885,1.5864 7.812138,3.61486 10.9375,6.1561 l -23.4375,0 c 1.167215,-0.75578 2.509641,-1.4834 4.0625,-2.18745 a 2.0001998,2.0001498 0 0 0 -0.9375,-3.84365 2.0001998,2.0001498 0 0 0 -0.6875,0.18749 c -3.61005,1.63676 -6.690149,3.48569 -8.875,6.18735 -2.184851,2.70166 -3.328175,6.21907 -3.3125,10.65603 0.02163,6.1323 2.811263,11.0248 6.6875,14.6871 3.85912,3.6461 8.775801,6.1964 13.5,8.1248 0.02142,0.01 0.04108,0.022 0.0625,0.031 5.111103,2.26 10.16065,4.912 13.8125,8.1873 0.348691,0.3127 0.679226,0.646 1,0.9687 l -27.71875,0 c 1.245258,-1.2033 2.942418,-2.2284 5.34375,-3.1249 a 2.0001998,2.0001498 0 1 0 -1.375,-3.75 c -4.06193,1.5165 -7.047673,3.6097 -8.875,6.6249 -1.827327,3.0151 -2.449114,6.7262 -2.4375,11.2497 a 2.0001998,2.0001498 0 0 0 2,2 l 40,0 a 2.0001998,2.0001498 0 0 0 2,-2.0312 c -0.01592,-6.1838 -3.030913,-11.1218 -7.25,-14.9059 -4.219087,-3.7841 -9.644118,-6.569 -14.9375,-8.906 a 2.0001998,2.0001498 0 0 0 -0.0625,-0.031 c -3.89589,-1.5864 -7.81214,-3.5836 -10.9375,-6.1248 l 23.4375,0 c -1.167215,0.7558 -2.509641,1.4521 -4.0625,2.1562 a 2.0005721,2.0005221 0 0 0 1.625,3.6561 c 3.61005,-1.6367 6.690149,-3.4857 8.875,-6.1873 2.184851,-2.7016 3.328175,-6.2191 3.3125,-10.656 -0.02163,-6.13233 -2.811264,-11.02487 -6.6875,-14.68718 -3.859119,-3.64614 -8.775797,-6.19636 -13.5,-8.1248 -0.02142,-0.009 -0.04108,-0.0218 -0.0625,-0.0312 -5.111105,-2.26014 -10.160649,-4.91196 -13.8125,-8.1873 -0.347089,-0.3113 -0.681157,-0.6162 -1,-0.93748 l 27.71875,0 c -1.245258,1.21257 -2.942417,2.22838 -5.34375,3.12493 a 2.0001999,2.0001499 0 1 0 1.375,3.7499 c 4.061928,-1.51655 7.047674,-3.64093 8.875,-6.65608 1.827326,-3.01516 2.449114,-6.72627 2.4375,-11.24972 a 2.0001999,2.0001499 0 0 0 -2,-1.9687 l -40,0 a 2.0001999,2.0001499 0 0 0 -0.1875,0 z m 2.4375,3.9999 35.59375,0 c -0.11114,1.9091 -0.360301,3.59763 -0.78125,4.99987 l -33.0625,0 a 2.0001999,2.0001499 0 0 0 -0.09375,0 c -0.833767,-1.52908 -1.402432,-3.19704 -1.65625,-4.99987 z m 1.375,31.9992 31.375,0 a 2.0001999,2.0001499 0 0 0 0.03125,0 c 1.294454,1.7732 2.215792,3.74519 2.65625,5.99982 l -35.65625,0 c 0.1045,-2.55855 0.644199,-4.44189 1.59375,-5.99982 z m -1.3125,9.99972 35.65625,0 c -0.105945,2.5679 -0.66725,4.4388 -1.625,5.9999 l -31.34375,0 a 2.0001999,2.0001499 0 0 0 -0.03125,0 c -1.290389,-1.7676 -2.214137,-3.7541 -2.65625,-5.9999 z m 0.625,32.9992 33.0625,0 a 2.0001999,2.0001499 0 0 0 0.125,0 c 0.842812,1.5359 1.405379,3.1866 1.65625,4.9999 l -35.625,0 c 0.110925,-1.9277 0.355028,-3.5853 0.78125,-4.9999 z"
         visibility="visible"
         display="inline"
         overflow="visible"
         id="path6180" />
    </g>
    <text
       xml:space="preserve"
       style="color:#000000;font-style:normal;font-variant:normal;font-weight:normal;font-stretch:normal;font-size:75.19820404px;line-height:0%;font-family:'Latin Modern Sans Quotation';-inkscape-font-specification:'Latin Modern Sans Quotation';text-indent:0;text-align:center;text-decoration:none;text-decoration-line:none;text-decoration-style:solid;text-decoration-color:#000000;letter-spacing:0px;word-spacing:0px;text-transform:none;direction:ltr;block-progression:tb;writing-mode:lr-tb;baseline-shift:baseline;text-anchor:middle;white-space:normal;clip-rule:nonzero;display:inline;overflow:visible;visibility:visible;opacity:1;isolation:auto;mix-blend-mode:normal;color-interpolation:sRGB;color-interpolation-filters:linearRGB;solid-color:#000000;solid-opacity:1;fill:#87aade;fill-opacity:1;fill-rule:nonzero;stroke:none;stroke-width:1px;stroke-linecap:butt;stroke-linejoin:miter;stroke-miterlimit:4;stroke-dasharray:none;stroke-dashoffset:0;stroke-opacity:1;marker:none;color-rendering:auto;image-rendering:auto;shape-rendering:auto;text-rendering:auto;enable-background:accumulate"
       x="703.1087"
       y="422.65433"
       id="text4184"
       sodipodi:linespacing="0%"><tspan
         sodipodi:role="line"
         id="tspan4186"
         x="703.1087"
         y="422.65433"
         style="font-style:normal;font-variant:normal;font-weight:normal;font-stretch:normal;font-family:'Latin Modern Sans Quotation';-inkscape-font-specification:'Latin Modern Sans Quotation';fill:#87aade;fill-opacity:1">geofetch</tspan></text>
    <g
       style="font-size:75.19820404px;font-style:normal;font-variant:normal;font-weight:normal;font-stretch:normal;text-indent:0;text-align:center;text-decoration:none;line-height:0%;letter-spacing:0px;word-spacing:0px;text-transform:none;direction:ltr;block-progression:tb;writing-mode:lr-tb;text-anchor:middle;baseline-shift:baseline;color:#000000;fill:#214478;fill-opacity:1;fill-rule:nonzero;stroke:none;stroke-width:1px;marker:none;visibility:visible;display:inline;overflow:visible;enable-background:accumulate;font-family:Latin Modern Sans Quotation;-inkscape-font-specification:Latin Modern Sans Quotation"
       id="text4188">
      <path
         d="m 577.86962,420.02239 0,-33.98959 c 0,-1.50396 0,-3.30872 -2.93273,-3.30872 -2.93273,0 -2.93273,1.80476 -2.93273,3.30872 l 0,3.83511 -0.0752,0 c -2.40634,-4.43669 -5.94066,-7.14383 -10.90374,-7.14383 -9.85095,0 -18.49876,8.8734 -18.49876,20.22832 0,10.75333 8.49741,18.12277 17.44599,18.12277 5.63986,0 9.47497,-3.45913 11.80612,-8.4222 l 0.0752,0 0,9.24938 c 0,5.63986 -4.96308,8.1214 -10.52775,8.1214 -5.26386,0 -9.62537,-0.90238 -13.38528,-2.18075 -1.50396,-0.52638 -1.80475,-0.52638 -1.80475,-0.52638 -1.12797,0 -1.12798,0.97757 -1.12798,2.18074 l 0,0.75199 c 0,1.72955 10e-6,1.87995 1.42877,2.33114 3.75991,1.12797 8.723,2.18075 14.88924,2.18075 10.52774,0 16.54361,-7.14384 16.54361,-14.73885 m -5.86546,-20.07792 c 0,9.92615 -3.91031,16.39321 -10.15176,16.39321 -6.84303,0 -13.31008,-5.48948 -13.31008,-13.38528 0,-8.49739 6.54225,-15.49083 14.36286,-15.49083 6.46704,0 9.09898,7.51982 9.09898,10.67814 l 0,1.80476"
         style="fill:#214478;marker:none;font-family:Latin Modern Sans Quotation;-inkscape-font-specification:Latin Modern Sans Quotation"
         id="path2995" />
      <path
         d="m 624.41731,401.07244 c 0,-10.82853 -6.09107,-18.72435 -16.694,-18.72435 -10.45254,0 -18.57396,9.32459 -18.57396,20.45391 0,11.50532 8.9486,20.60431 19.85233,20.60431 4.28629,0 8.87339,-1.27837 12.78369,-3.98551 2.25595,-1.57916 2.25595,-1.87995 2.25595,-2.48154 0,-1.50396 0,-3.8351 -1.27837,-3.8351 -0.45119,0 -0.75198,0.30079 -1.27837,0.75198 -3.9103,3.53431 -8.723,4.81268 -12.4077,4.81268 -7.82061,0 -13.76128,-6.76784 -14.21247,-14.51325 l 26.24418,0 c 1.57916,0 3.30872,0 3.30872,-3.08313 m -4.88788,-0.60158 -24.58982,0 c 0.97758,-7.89581 6.54225,-13.38528 12.7837,-13.38528 11.12932,0 11.65572,10.90374 11.80612,13.38528"
         style="fill:#214478;marker:none;font-family:Latin Modern Sans Quotation;-inkscape-font-specification:Latin Modern Sans Quotation"
         id="path2997" />
      <path
         d="m 670.71238,403.17799 c 0,-11.58051 -9.0238,-20.8299 -19.92753,-20.8299 -10.97892,0 -19.92752,9.32459 -19.92752,20.8299 0,11.20452 8.9486,20.22832 19.92752,20.22832 10.97893,0 19.92753,-9.0238 19.92753,-20.22832 m -6.01586,-0.82718 c 0,12.3325 -7.51982,16.16762 -13.91167,16.16762 -6.54223,0 -13.91166,-3.98552 -13.91166,-16.16762 0,-11.8813 7.82062,-15.26523 13.91166,-15.26523 6.09105,0 13.91167,3.30873 13.91167,15.26523"
         style="fill:#214478;marker:none;font-family:Latin Modern Sans Quotation;-inkscape-font-specification:Latin Modern Sans Quotation"
         id="path2999" />
      <path
         d="m 706.88272,373.6251 0,-1.05278 c 0,-1.95515 -0.0752,-2.03035 -3.00792,-2.48154 -2.33115,-0.37599 -4.5119,-0.37599 -5.11348,-0.37599 -7.14383,0 -14.28766,3.30873 -14.28766,10.22696 l 0,3.53431 -4.2863,0 c -0.90238,0 -3.30872,10e-6 -3.30872,2.33115 0,2.40634 2.33115,2.40634 3.30872,2.40634 l 4.2863,0 0,31.13206 c 0,1.50396 0,3.30872 2.93273,3.30872 2.93273,0 2.93273,-1.80476 2.93273,-3.30872 l 0,-31.13206 7.59502,0 c 0.90237,0 3.30872,0 3.30872,-2.33114 0,-2.40634 -2.33115,-2.40635 -3.30872,-2.40635 l -7.74542,0 0,-5.03828 c 0,-1.57916 0,-2.25594 2.85753,-3.23352 1.80476,-0.60158 3.60952,-0.75198 5.48947,-0.75198 1.50397,0 3.53432,0.0752 6.24145,0.97758 0.67679,0.22559 0.82718,0.30079 1.05278,0.30079 1.05277,0 1.05277,-0.97758 1.05277,-2.10555"
         style="fill:#214478;marker:none;font-family:Latin Modern Sans Quotation;-inkscape-font-specification:Latin Modern Sans Quotation"
         id="path3001" />
      <path
         d="m 742.06137,401.07244 c 0,-10.82853 -6.09106,-18.72435 -16.694,-18.72435 -10.45254,0 -18.57395,9.32459 -18.57395,20.45391 0,11.50532 8.94859,20.60431 19.85232,20.60431 4.2863,0 8.87339,-1.27837 12.7837,-3.98551 2.25594,-1.57916 2.25594,-1.87995 2.25594,-2.48154 0,-1.50396 0,-3.8351 -1.27837,-3.8351 -0.45118,0 -0.75198,0.30079 -1.27837,0.75198 -3.9103,3.53431 -8.72299,4.81268 -12.4077,4.81268 -7.8206,0 -13.76127,-6.76784 -14.21246,-14.51325 l 26.24417,0 c 1.57916,0 3.30872,0 3.30872,-3.08313 m -4.88788,-0.60158 -24.58981,0 c 0.97757,-7.89581 6.54225,-13.38528 12.78369,-13.38528 11.12933,0 11.65573,10.90374 11.80612,13.38528"
         style="fill:#214478;marker:none;font-family:Latin Modern Sans Quotation;-inkscape-font-specification:Latin Modern Sans Quotation"
         id="path3003" />
      <path
         d="m 776.24953,418.66882 c 0,-0.22559 -0.376,-1.42876 -0.52639,-2.03035 -0.2256,-0.90238 -0.37599,-1.50396 -1.20317,-1.50396 -0.37599,0 -0.67679,0.30079 -1.05278,0.52638 -2.40634,1.80476 -5.26388,2.85754 -8.4222,2.85754 -3.45911,0 -4.1359,-3.91031 -4.1359,-7.29423 l 0,-23.01065 10.45255,0 c 0.90238,0 3.30872,0 3.30872,-2.33114 0,-2.40634 -2.33114,-2.40635 -3.30872,-2.40635 l -10.45255,0 0,-7.89581 c 0,-1.35356 0,-3.30872 -2.78233,-3.30872 -2.85753,0 -2.85753,1.87996 -2.85753,3.30872 l 0,7.89581 -5.26388,0 c -0.90237,0 -3.30872,10e-6 -3.30872,2.33115 0,2.40634 2.33115,2.40634 3.30872,2.40634 l 5.11348,0 0,24.28902 c 0,5.11347 1.57917,10.90374 7.82061,10.90374 1.05278,0 4.3615,-0.0752 8.12141,-1.42877 0.22559,-0.0752 5.18868,-1.87995 5.18868,-3.30872"
         style="fill:#214478;marker:none;font-family:Latin Modern Sans Quotation;-inkscape-font-specification:Latin Modern Sans Quotation"
         id="path3005" />
      <path
         d="m 817.99746,417.08966 c 0,-0.97758 0,-4.0607 -1.35357,-4.0607 -0.45118,0 -0.60158,0.22559 -1.27837,0.75198 -4.13589,3.60951 -8.64779,4.73749 -12.78369,4.73749 -7.971,0 -13.61088,-6.61745 -13.61088,-15.49083 0,-7.89581 4.36151,-15.79163 13.98687,-15.79163 5.18867,0 7.74542,0.90238 11.35493,3.00793 1.12797,0.75198 1.27837,0.75198 1.57916,0.75198 0.82718,0 0.97758,-0.75198 1.12797,-1.57916 0.0752,-0.45119 0.45119,-2.10555 0.45119,-2.48154 0,-0.67678 -0.0752,-0.75198 -1.87995,-1.72956 -4.28629,-2.10555 -7.29423,-2.85753 -12.6333,-2.85753 -12.63328,0 -20.00272,10.45256 -20.00272,20.67951 0,11.05412 8.34701,20.37871 19.62673,20.37871 1.12797,0 5.03828,0 9.47497,-1.87996 1.80476,-0.82718 5.94066,-3.00793 5.94066,-4.43669"
         style="fill:#214478;marker:none;font-family:Latin Modern Sans Quotation;-inkscape-font-specification:Latin Modern Sans Quotation"
         id="path3007" />
      <path
         d="m 860.23184,419.34561 0,-23.83783 c 0,-8.347 -4.06072,-12.7837 -12.7837,-12.7837 -7.06862,0 -11.27973,4.4367 -13.31008,8.2718 l -0.0752,0 0,-17.22039 c 0,-1.50396 0,-3.30872 -2.93273,-3.30872 -2.93273,0 -2.93273,1.80476 -2.93273,3.30872 l 0,45.57012 c 0,1.57916 0,3.30872 3.00793,3.30872 3.00792,0 3.00793,-1.72956 3.00793,-3.30872 l 0,-19.47634 c 0,-6.91823 4.3615,-12.4077 10.97893,-12.4077 8.1214,0 9.02379,4.51189 9.02379,8.57259 l 0,23.31145 c 0,1.57916 0,3.30872 3.00793,3.30872 3.00792,0 3.00793,-1.72956 3.00793,-3.30872"
         style="fill:#214478;marker:none;font-family:Latin Modern Sans Quotation;-inkscape-font-specification:Latin Modern Sans Quotation"
         id="path3009" />
    </g>
  </g>
</svg>
